<?xml version="1.0" ?><svg id="Layer_1" style="enable-background:new 0 0 128 128;" version="1.1" viewBox="0 0 128 128" xml:space="preserve" xmlns="http://www.w3.org/2000/svg" xmlns:xlink="http://www.w3.org/1999/xlink"><style type="text/css">
	.st0{fill:#1C4FBE;}
	.st1{fill:#EE693F;}
	.st2{fill:#FFB8CB;}
	.st3{fill:#F94003;}
	.st4{fill:#DEA740;}
	.st5{fill:#1CB6BE;}
	.st6{fill:#BCCE3E;}
	.st7{fill:#EDEFF2;}
	.st8{fill:#684E3C;}
	.st9{fill:#100F0D;}
	.st10{fill:#5B4332;}
	.st11{fill:#5C7242;}
	.st12{fill:#E1B0AF;}
	.st13{fill:#EC5527;}
	.st14{fill:#057590;}
	.st15{fill:#771C39;}
	.st16{fill:#F8A70C;}
	.st17{fill:#F06522;}
	.st18{fill:#FFFFFF;}
	.st19{fill:#CC7C2C;}
	.st20{fill:#5D6124;}
	.st21{fill:#E6AA30;}
	.st22{fill:#2AB06A;}
	.st23{fill:#725948;}
	.st24{fill:#1A1613;}
	.st25{fill:none;}
	.st26{fill:#EE4D4C;}
</style><g/><g><path class="st7" d="M57.7,57.9c3.2,4.2-6.4,16.6-9.5,19.3c-5.9,5.2-14.4,7.6-22.2,6.4C9.3,80.9-0.6,66,0.3,50.3   c0.8-14.9,9.8-37.7,28-38.6c13.4-0.6,27.6,16.5,29.2,29.1L57.7,57.9z"/></g><g><path class="st7" d="M125.6,56.9c5.1,16.7-23.6,28.6-35.4,25.5C72.4,77.8,66.3,60.4,68.7,44C71,28.6,81.7,14,98.5,15.5   c12.4,1.2,26.9,13.9,26.9,27.2L125.6,56.9z"/></g><g><path class="st9" d="M61,57.9c-10.3,12.3-27.5-6.5-16.6-17.7C57.2,26.9,66.2,48.4,61,57.9z"/></g><g><path class="st9" d="M125.6,56.9c-5.6,10.4-22.7,2.9-20.4-9.6c2.7-14.8,18.4-8.9,20.2-4.6C127.4,47.7,127.9,52.6,125.6,56.9z"/></g><g><path class="st26" d="M69,120.2c-28.1,1.2-51.8-4.5-53.4-4.8c-3.5-0.6-5.9-4-5.2-7.6c0.6-3.5,4-5.9,7.6-5.2   c0.6,0.1,57.9,7.4,95-2.2c3.5-0.9,7.1,0,8.6,3.3c1.5,3.3,0,7.1-3.3,8.6C104.6,118.4,86.4,120.2,69,120.2z"/></g></svg>